<svg width="80" height="80" viewBox="0 0 80 80" fill="none" xmlns="http://www.w3.org/2000/svg">
<rect width="80" height="80" rx="40" fill="white"/>
<rect x="1" y="1" width="78" height="78" rx="39" stroke="black" stroke-opacity="0.5" stroke-width="2"/>
<path fill-rule="evenodd" clip-rule="evenodd" d="M32.1858 32.1858C34.2582 30.1133 37.0691 28.949 40 28.949C42.9309 28.949 45.7418 30.1133 47.8142 32.1858C49.8867 34.2582 51.051 37.0691 51.051 40C51.051 42.9309 49.8867 45.7418 47.8142 47.8142C45.7418 49.8867 42.9309 51.051 40 51.051C37.0691 51.051 34.2582 49.8867 32.1858 47.8142C30.1133 45.7418 28.949 42.9309 28.949 40C28.949 37.0691 30.1133 34.2582 32.1858 32.1858ZM37.2547 46.6278C38.1251 46.9883 39.0579 47.1738 40 47.1738C41.9026 47.1738 43.7273 46.418 45.0727 45.0727C46.418 43.7273 47.1738 41.9026 47.1738 40C47.1738 38.0974 46.418 36.2727 45.0727 34.9273C43.7273 33.582 41.9026 32.8262 40 32.8262C39.0579 32.8262 38.1251 33.0117 37.2547 33.3722C36.3843 33.7328 35.5935 34.2612 34.9273 34.9273C34.2612 35.5935 33.7328 36.3843 33.3722 37.2547C33.0117 38.1251 32.8262 39.0579 32.8262 40C32.8262 40.9421 33.0117 41.8749 33.3722 42.7453C33.7328 43.6157 34.2612 44.4065 34.9273 45.0727C35.5935 45.7388 36.3843 46.2672 37.2547 46.6278Z" fill="black" fill-opacity="0.8"/>
<path d="M53.5009 30.5955C53.9907 30.1056 54.266 29.4412 54.266 28.7483C54.266 28.0555 53.9907 27.3911 53.5009 26.9012C53.011 26.4113 52.3465 26.1361 51.6537 26.1361C50.9609 26.1361 50.2965 26.4113 49.8066 26.9012C49.3167 27.3911 49.0415 28.0555 49.0415 28.7483C49.0415 29.4412 49.3167 30.1056 49.8066 30.5955C50.2965 31.0854 50.9609 31.3606 51.6537 31.3606C52.3465 31.3606 53.011 31.0854 53.5009 30.5955Z" fill="black" fill-opacity="0.8"/>
<path fill-rule="evenodd" clip-rule="evenodd" d="M31.1363 18.629C33.4296 18.5244 34.1606 18.5 40 18.5C45.8408 18.5 46.5704 18.5258 48.8623 18.629C51.1513 18.7336 52.7165 19.0991 54.0839 19.628C55.518 20.1682 56.8171 21.0144 57.8909 22.1077C58.9845 23.1817 59.8308 24.4814 60.3705 25.9161C60.9023 27.2835 61.2664 28.8472 61.371 31.1363C61.4756 33.4296 61.5 34.1606 61.5 40C61.5 45.8394 61.4756 46.5704 61.371 48.8637C61.2664 51.1528 60.9023 52.7165 60.372 54.0839C59.8318 55.518 58.9856 56.8171 57.8923 57.8909C56.8173 58.9859 55.5173 59.8316 54.0839 60.3705C52.7165 60.9023 51.1528 61.2664 48.8637 61.371C46.5704 61.4756 45.8394 61.5 40 61.5C34.1606 61.5 33.4296 61.4756 31.1363 61.371C28.8472 61.2664 27.2835 60.9023 25.9161 60.372C24.482 59.8318 23.1829 58.9856 22.1091 57.8923C21.0141 56.8173 20.1684 55.5173 19.6295 54.0839C19.0977 52.7165 18.7336 51.1528 18.629 48.8637C18.5244 46.5704 18.5 45.8408 18.5 40C18.5 34.1592 18.5258 33.4296 18.629 31.1377C18.7336 28.8487 19.0991 27.2835 19.628 25.9161C20.1682 24.482 21.0144 23.1829 22.1077 22.1091C23.1827 21.0141 24.4827 20.1684 25.9161 19.6295C27.2835 19.0977 28.8472 18.7336 31.1363 18.629ZM48.6889 22.499C46.4213 22.3958 45.7405 22.3743 40 22.3743C34.2595 22.3743 33.5787 22.3958 31.3111 22.499C29.2156 22.595 28.0775 22.9448 27.3193 23.24C26.3854 23.584 25.5404 24.1331 24.8468 24.8468C24.0957 25.5993 23.6285 26.316 23.24 27.3193C22.9433 28.0775 22.595 29.2156 22.499 31.3111C22.3958 33.5787 22.3743 34.2595 22.3743 40C22.3743 45.7405 22.3958 46.4213 22.499 48.6889C22.595 50.7844 22.9448 51.9225 23.24 52.6807C23.5842 53.6145 24.1333 54.4594 24.8468 55.1532C25.5405 55.8668 26.3854 56.4159 27.3193 56.76C28.0775 57.0567 29.2156 57.405 31.3111 57.501C33.5787 57.6042 34.2581 57.6257 40 57.6257C45.7419 57.6257 46.4213 57.6042 48.6889 57.501C50.7844 57.405 51.9225 57.0552 52.6807 56.76C53.6147 56.416 54.4596 55.867 55.1532 55.1532C55.8668 54.4595 56.4159 53.6146 56.76 52.6807C57.0567 51.9225 57.405 50.7844 57.501 48.6889C57.6042 46.4213 57.6257 45.7405 57.6257 40C57.6257 34.2595 57.6042 33.5787 57.501 31.3111C57.405 29.2156 57.0552 28.0775 56.76 27.3193C56.3715 26.316 55.9057 25.5993 55.1532 24.8468C54.4007 24.0957 53.684 23.6285 52.6807 23.24C51.9225 22.9433 50.7844 22.595 48.6889 22.499Z" fill="black" fill-opacity="0.8"/>
</svg>
