<svg width="80" height="80" viewBox="0 0 80 80" fill="none" xmlns="http://www.w3.org/2000/svg">
<rect width="80" height="80" rx="40" fill="white"/>
<rect x="1" y="1" width="78" height="78" rx="39" stroke="black" stroke-opacity="0.5" stroke-width="2"/>
<path d="M55.2888 25.0223C52.5955 23.2663 50.6515 20.4565 50.0451 17.1812C49.9141 16.4735 49.8422 15.7452 49.8422 15H41.2461L41.2324 49.4499C41.0879 53.3077 37.9127 56.404 34.0203 56.404C32.8106 56.404 31.6714 56.1015 30.6685 55.5737C28.3685 54.3634 26.7945 51.9526 26.7945 49.1783C26.7945 45.1938 30.0362 41.9521 34.0203 41.9521C34.7641 41.9521 35.4775 42.0748 36.1524 42.2862V33.5106C35.454 33.4155 34.7444 33.3561 34.0203 33.3561C25.296 33.3561 18.1985 40.4539 18.1985 49.1783C18.1985 54.531 20.8729 59.268 24.9529 62.1324C27.5229 63.9367 30.6489 65 34.0203 65C42.7447 65 49.8422 57.9026 49.8422 49.1783V31.7092C53.2136 34.129 57.3442 35.555 61.8014 35.555V26.959C59.4004 26.959 57.1642 26.2452 55.2888 25.0223Z" fill="black" fill-opacity="0.8"/>
</svg>
