<svg width="80" height="80" viewBox="0 0 80 80" fill="none" xmlns="http://www.w3.org/2000/svg">
<rect width="80" height="80" rx="40" fill="white"/>
<rect x="1" y="1" width="78" height="78" rx="39" stroke="black" stroke-opacity="0.5" stroke-width="2"/>
<path d="M61.3372 18.8796C61.3372 18.8796 66.0964 17.0183 65.6997 21.5386C65.5676 23.3999 64.3778 29.9144 63.4524 36.9607L60.2796 57.8338C60.2796 57.8338 60.0153 60.8916 57.6356 61.4234C55.256 61.9552 51.6867 59.5621 51.0256 59.0303C50.4968 58.6315 41.1108 52.6487 37.8057 49.7239C36.8803 48.9262 35.8227 47.3307 37.9379 45.4695L51.8189 32.1746C53.4053 30.5792 54.9916 26.8566 48.3816 31.3769L29.8738 44.0071C29.8738 44.0071 27.7586 45.3365 23.7927 44.14L15.1997 41.481C15.1997 41.481 12.0269 39.4868 17.4471 37.4925C30.667 31.2438 46.9275 24.8623 61.3372 18.8796Z" fill="black" fill-opacity="0.8"/>
</svg>
