<svg width="17" height="16" viewBox="0 0 17 16" fill="none" xmlns="http://www.w3.org/2000/svg">
<path d="M10.2688 5.18587V3.17423H14.8452V0H2.14188V3.17423H6.73118V5.18587C2.8864 5.37079 0 6.14264 0 7.06725C0 7.99186 2.88318 8.75889 6.73118 8.94864V15.5882H10.2688V8.94864C14.1136 8.76532 17 7.99347 17 7.06725C17 6.14103 14.1168 5.37079 10.2688 5.18587ZM8.5 8.34724C4.33683 8.34724 0.961597 7.70403 0.961597 6.92896C0.961597 6.26163 3.42026 5.70204 6.72796 5.5525V7.82463C7.2972 7.85036 7.88895 7.86483 8.49678 7.86483C9.10461 7.86483 9.69958 7.85036 10.2656 7.82463V5.5525C13.5733 5.70204 16.032 6.26163 16.032 6.92896C16.0384 7.71207 12.6632 8.34724 8.5 8.34724Z" fill="black"/>
</svg>
