<svg width="17" height="17" viewBox="0 0 17 17" fill="none" xmlns="http://www.w3.org/2000/svg">
<path d="M11.6534 9.81791C11.6728 8.4936 10.3082 7.5624 8.54728 7.37874C7.51296 7.27402 6.9507 6.97919 6.9507 6.29609C6.9507 5.64361 7.61446 5.15867 8.35395 5.19895C9.69759 5.27467 9.89253 6.10599 9.89253 6.61348C9.89253 6.61348 11.3554 6.62959 11.3554 6.61348C11.3554 5.37778 10.6433 4.2903 9.18849 3.9697V2.50684H7.73851V3.91814C6.23538 4.15658 5.40245 5.36811 5.38795 6.3992C5.36701 7.76379 6.50765 8.5226 8.40067 8.79649C9.57676 8.95759 10.1004 9.40709 10.0891 10.0032C10.0794 10.6476 9.65892 11.2647 8.44739 11.2647C7.29708 11.2647 6.82503 10.5542 6.82503 9.80502H5.24618C5.24618 11.1487 5.96472 12.1346 7.73046 12.3634V13.7715H9.18043V12.3779C11.2297 12.1185 11.6405 10.5783 11.6534 9.81791Z" fill="black"/>
<path d="M1.47786 8.22617C1.4779 6.75503 1.93994 5.32105 2.79876 4.12663C3.65758 2.9322 4.86982 2.03763 6.26438 1.56919V0.0241663C4.46515 0.514947 2.87722 1.58373 1.74522 3.06585C0.613235 4.54798 0 6.3612 0 8.22617C0 10.0911 0.613235 11.9044 1.74522 13.3865C2.87722 14.8686 4.46515 15.9374 6.26438 16.4282V14.8831C4.86982 14.4147 3.65758 13.5201 2.79876 12.3257C1.93994 11.1313 1.4779 9.6973 1.47786 8.22617Z" fill="black"/>
<path d="M10.6546 0V1.54019C12.0686 1.99679 13.3014 2.88994 14.1759 4.09127C15.0504 5.29261 15.5215 6.74026 15.5215 8.22617C15.5215 9.71207 15.0504 11.1597 14.1759 12.3611C13.3014 13.5624 12.0686 14.4555 10.6546 14.9121V16.4523C12.4726 15.9751 14.0813 14.909 15.2293 13.4207C16.3773 11.9324 17 10.1058 17 8.22617C17 6.34655 16.3773 4.51988 15.2293 3.03159C14.0813 1.54331 12.4726 0.477248 10.6546 0Z" fill="black"/>
</svg>
