<svg width="108" height="32" viewBox="0 0 108 32" fill="none" xmlns="http://www.w3.org/2000/svg">
<path d="M0.890615 0.766343H19.3243L8.45049 25.6621H18.6201V31.2337H0L10.8324 6.50356H0.890615V0.766343Z" fill="black"/>
<path d="M36.8375 0C41.1456 0 44.8461 1.5603 47.9391 4.68091C51.0459 7.80151 52.5993 11.6056 52.5993 16.0932C52.5993 20.5394 51.0666 24.302 48.0012 27.3812C44.9497 30.4604 41.2422 32 36.8789 32C32.3085 32 28.5113 30.419 25.4873 27.257C22.4634 24.0949 20.9514 20.3392 20.9514 15.9896C20.9514 13.0762 21.6556 10.3974 23.064 7.9534C24.4724 5.50939 26.4056 3.57627 28.8634 2.15405C31.335 0.718015 33.993 0 36.8375 0ZM36.7754 5.67508C33.9585 5.67508 31.5905 6.65545 29.6711 8.61618C27.7518 10.5769 26.7922 13.0693 26.7922 16.0932C26.7922 19.4624 28.0004 22.1273 30.4168 24.088C32.2947 25.6207 34.4487 26.3871 36.8789 26.3871C39.6267 26.3871 41.9672 25.3929 43.9003 23.4045C45.8334 21.4162 46.7999 18.9653 46.7999 16.0518C46.7999 13.1521 45.8265 10.7012 43.8796 8.69903C41.9326 6.68306 39.5646 5.67508 36.7754 5.67508Z" fill="black"/>
<path d="M57.1882 0.766343H63.3397C66.7088 0.766343 69.1045 1.07012 70.5268 1.67767C71.9628 2.27141 73.1158 3.26559 73.9857 4.66019C74.8556 6.0548 75.2905 7.70485 75.2905 9.61036C75.2905 11.6125 74.8072 13.2902 73.8407 14.6434C72.8879 15.9827 71.445 16.9976 69.5119 17.688L76.7196 31.2337H70.3818L63.5261 18.3301H62.9876V31.2337H57.1882V0.766343ZM62.9876 12.6757H64.8102C66.6605 12.6757 67.9309 12.4341 68.6213 11.9508C69.3255 11.4675 69.6776 10.6667 69.6776 9.54822C69.6776 8.88544 69.505 8.31241 69.1598 7.82913C68.8146 7.33204 68.352 6.97994 67.7721 6.77282C67.1921 6.55189 66.1289 6.44142 64.5824 6.44142H62.9876V12.6757Z" fill="black"/>
<path d="M89.407 0.766343H95.2892L107.012 31.2337H100.985L98.6031 24.9579H86.1759L83.6905 31.2337H77.6633L89.407 0.766343ZM92.3895 8.84401L88.3299 19.3036H96.4283L92.3895 8.84401Z" fill="black"/>
</svg>
